{
   "accessors" : [
      {
         "bufferView" : 0,
         "byteOffset" : 0,
         "componentType" : 5123,
         "count" : 518538,
         "max" : [ 65533 ],
         "min" : [ 0 ],
         "name" : "buffer-0-group-0-mesh-0-indices",
         "type" : "SCALAR"
      },
      {
         "bufferView" : 1,
         "byteOffset" : 0,
         "componentType" : 5126,
         "count" : 65534,
         "max" : [ 3.998198986053467, 6.761441230773926, 3.445234060287476 ],
         "min" : [ -3.808689117431641, -4.716746807098389, -3.667151927947998 ],
         "name" : "buffer-0-group-0-mesh-0-position",
         "type" : "VEC3"
      },
      {
         "bufferView" : 1,
         "byteOffset" : 786408,
         "componentType" : 5126,
         "count" : 65534,
         "max" : [ 0.9999902248382568, 0.9999558329582214, 0.9999391436576843 ],
         "min" : [ -0.9999623894691467, -0.9999336004257202, -0.9999803304672241 ],
         "name" : "buffer-0-group-0-mesh-0-normal",
         "type" : "VEC3"
      },
      {
         "bufferView" : 2,
         "byteOffset" : 0,
         "componentType" : 5126,
         "count" : 65534,
         "max" : [ 0.7610470056533813, -0.01290000043809414 ],
         "min" : [ 0.2389529943466187, -0.5349929928779602 ],
         "name" : "buffer-0-group-0-mesh-0-texcoord",
         "type" : "VEC2"
      },
      {
         "bufferView" : 0,
         "byteOffset" : 1037076,
         "componentType" : 5123,
         "count" : 270342,
         "max" : [ 34441 ],
         "min" : [ 0 ],
         "name" : "buffer-0-group-0-mesh-1-indices",
         "type" : "SCALAR"
      },
      {
         "bufferView" : 1,
         "byteOffset" : 1572816,
         "componentType" : 5126,
         "count" : 34442,
         "max" : [ 3.934950113296509, 3.390446901321411, 3.668056011199951 ],
         "min" : [ -3.754055023193359, -4.52869701385498, -3.557729005813599 ],
         "name" : "buffer-0-group-0-mesh-1-position",
         "type" : "VEC3"
      },
      {
         "bufferView" : 1,
         "byteOffset" : 1986120,
         "componentType" : 5126,
         "count" : 34442,
         "max" : [ 0.9997934103012085, 0.9998998641967773, 0.9999127984046936 ],
         "min" : [ -0.9999930858612061, -0.9999788403511047, -0.999998152256012 ],
         "name" : "buffer-0-group-0-mesh-1-normal",
         "type" : "VEC3"
      },
      {
         "bufferView" : 2,
         "byteOffset" : 524272,
         "componentType" : 5126,
         "count" : 34442,
         "max" : [ 0.7568269968032837, -0.02146700024604797 ],
         "min" : [ 0.242587998509407, -0.3814089894294739 ],
         "name" : "buffer-0-group-0-mesh-1-texcoord",
         "type" : "VEC2"
      }
   ],
   "asset" : {
      "extras" : {
         "GOOGLE_processor_version" : 294144208
      },
      "generator" : "Obj2GltfConverter",
      "version" : "2.0"
   },
   "bufferViews" : [
      {
         "buffer" : 0,
         "byteLength" : 1577760,
         "byteOffset" : 0,
         "name" : "buffer-0-bufferview-ushort",
         "target" : 34963
      },
      {
         "buffer" : 0,
         "byteLength" : 2399424,
         "byteOffset" : 1577760,
         "byteStride" : 12,
         "name" : "buffer-0-bufferview-vec3",
         "target" : 34962
      },
      {
         "buffer" : 0,
         "byteLength" : 799808,
         "byteOffset" : 3977184,
         "byteStride" : 8,
         "name" : "buffer-0-bufferview-vec2",
         "target" : 34962
      }
   ],
   "buffers" : [
      {
         "byteLength" : 4776992,
         "name" : "buffer-0",
         "uri" : "meditationladywireframe.bin"
      }
   ],
   "cameras" : [
      {
         "perspective" : {
            "yfov" : 0.7853981633974483,
            "znear" : 0.1000000014901161
         },
         "type" : "perspective"
      }
   ],
   "extensions" : {
      "KHR_lights_punctual" : {
         "lights" : [
            {
               "color" : [ 1, 0.9333333333333333, 0.8666666666666667 ],
               "intensity" : 0.25,
               "name" : "headLight",
               "type" : "directional"
            },
            {
               "color" : [ 1, 0.9333333333333333, 0.8666666666666667 ],
               "intensity" : 0.324999988079071,
               "name" : "keyLight",
               "type" : "directional"
            }
         ]
      }
   },
   "extensionsUsed" : [ "GOOGLE_backgrounds", "GOOGLE_camera_settings", "KHR_lights_punctual" ],
   "extras" : {
      "GOOGLE_initial_camera_motion" : {
         "motionPath" : "FULL_ROTATION"
      },
      "GOOGLE_lighting_rig" : {
         "disableShadows" : false
      }
   },
   "images" : [
      {
         "mimeType" : "image/png",
         "name" : "Material.001-diffuse-image",
         "uri" : "purpmag.png"
      }
   ],
   "materials" : [
      {
         "alphaCutoff" : 0.5,
         "alphaMode" : "OPAQUE",
         "doubleSided" : true,
         "emissiveFactor" : [ 0, 0, 0 ],
         "name" : "Material.001",
         "pbrMetallicRoughness" : {
            "baseColorFactor" : [ 0.6399999856948853, 0.6399999856948853, 0.6399999856948853, 1 ],
            "baseColorTexture" : {
               "index" : 0,
               "texCoord" : 0
            },
            "metallicFactor" : 0,
            "roughnessFactor" : 0.7448017597198486
         }
      }
   ],
   "meshes" : [
      {
         "name" : "buffer-0-mesh-0",
         "primitives" : [
            {
               "attributes" : {
                  "NORMAL" : 2,
                  "POSITION" : 1,
                  "TEXCOORD_0" : 3
               },
               "indices" : 0,
               "material" : 0,
               "mode" : 4
            },
            {
               "attributes" : {
                  "NORMAL" : 6,
                  "POSITION" : 5,
                  "TEXCOORD_0" : 7
               },
               "indices" : 4,
               "material" : 0,
               "mode" : 4
            }
         ]
      }
   ],
   "nodes" : [
      {
         "mesh" : 0,
         "name" : "node-0"
      },
      {
         "children" : [ 2 ]
      },
      {
         "children" : [ 3 ],
         "extras" : {
            "isTransformNode" : 1
         },
         "translation" : [ 0.02783089940108426, -0.4852568565977797, -0.04638979047031093 ]
      },
      {
         "children" : [ 0 ],
         "translation" : [ -0.02783089940108426, 0.4852568565977797, 0.04638979047031093 ]
      },
      {
         "camera" : 0,
         "children" : [ 5 ],
         "rotation" : [
            -0.07500559383781467,
            0.02724078089661943,
            0.002049751997570522,
            0.9968088579391376
         ],
         "translation" : [ 1.034223614918818, 2.918443402852628, 16.08632901061225 ]
      },
      {
         "extensions" : {
            "KHR_lights_punctual" : {
               "light" : 0
            }
         },
         "extras" : {
            "isHeadLight" : 1
         },
         "name" : "headLightNode",
         "translation" : [ -7.92220772378361, 3.961103861891805, 3.961103861891805 ]
      },
      {
         "extensions" : {
            "KHR_lights_punctual" : {
               "light" : 1
            }
         },
         "extras" : {
            "isKeyLight" : 1
         },
         "name" : "keyLightNode",
         "rotation" : [ -0.7505326882858236, -0.3752663441429118, 0, 0.5439447166468927 ],
         "scale" : [ 0, 0, 8.001429801021446 ],
         "translation" : [ -8.005141346602775, 15.91201751917181, -7.978229960212311 ]
      }
   ],
   "samplers" : [
      {
         "name" : "Material.001-diffuse-sampler",
         "wrapS" : 10497,
         "wrapT" : 10497
      }
   ],
   "scene" : 0,
   "scenes" : [
      {
         "extensions" : {
            "GOOGLE_backgrounds" : {
               "color" : [ 0, 0, 0 ]
            },
            "GOOGLE_camera_settings" : {
               "pivot" : [ 0.1411461748925224, 0.4435678545324774, -0.2414456528819872 ]
            }
         },
         "extras" : {
            "GOOGLE_camera_index" : {
               "cameraIndex" : 0,
               "nodeIndex" : 4
            },
            "GOOGLE_geometry_data" : {
               "stats" : {
                  "centroid" : [ -0.003711545581328106, -0.09084208287107848, 0.0231998408091351 ],
                  "radius" : 7.92220772378361,
                  "stdev" : 4.446589679601624
               },
               "visualCenterPoint" : [ 0.02783089940108426, -0.4852568565977797, -0.04638979047031093 ]
            },
            "GOOGLE_hemi_light" : {
               "groundColor" : [ 0, 0, 0 ]
            }
         },
         "name" : "scene-0",
         "nodes" : [ 1, 4, 6 ]
      }
   ],
   "textures" : [
      {
         "name" : "Material.001-diffuse-texture",
         "sampler" : 0,
         "source" : 0
      }
   ]
}
